<svg width="175.94843749999998px" height="78.8px" xmlns="http://www.w3.org/2000/svg" viewBox="162.02578125000002 35.6 175.94843749999998 78.8" style="background: rgba(0, 0, 0, 0);" preserveAspectRatio="xMidYMid"><defs><linearGradient id="editing-outline-gradient" x1="-0.5" x2="1.5" y1="0.5" y2="0.5"><stop offset="0" stop-color="rgba(0%,0%,0%,0)"></stop><stop offset="1" stop-color="#ffffff"></stop></linearGradient><filter id="editing-outline" x="-100%" y="-100%" width="300%" height="300%"><feMorphology in="SourceGraphic" operator="dilate" radius="1" result="outline"></feMorphology><feComposite operator="out" in="outline" in2="SourceAlpha"></feComposite></filter></defs><g filter="url(#editing-outline)"><g transform="translate(193.0968406200409, 84.95500183105469)"><path d="M11.01-12.66L10.55-10.35L10.55-10.35Q10.22-10.55 9.80-10.76L9.80-10.76L9.80-10.76Q9.37-10.98 8.88-11.17L8.88-11.17L8.88-11.17Q8.38-11.35 7.82-11.48L7.82-11.48L7.82-11.48Q7.26-11.60 6.66-11.60L6.66-11.60L6.66-11.60Q5.93-11.60 5.44-11.44L5.44-11.44L5.44-11.44Q4.94-11.29 4.65-11.04L4.65-11.04L4.65-11.04Q4.35-10.80 4.22-10.49L4.22-10.49L4.22-10.49Q4.09-10.18 4.09-9.89L4.09-9.89L4.09-9.89Q4.09-9.54 4.19-9.28L4.19-9.28L4.19-9.28Q4.30-9.02 4.63-8.79L4.63-8.79L4.63-8.79Q4.97-8.57 5.59-8.36L5.59-8.36L5.59-8.36Q6.21-8.15 7.25-7.91L7.25-7.91L7.25-7.91Q8.15-7.71 8.94-7.40L8.94-7.40L8.94-7.40Q9.73-7.09 10.32-6.62L10.32-6.62L10.32-6.62Q10.92-6.14 11.26-5.48L11.26-5.48L11.26-5.48Q11.60-4.81 11.60-3.89L11.60-3.89L11.60-3.89Q11.60-2.99 11.21-2.23L11.21-2.23L11.21-2.23Q10.81-1.46 10.13-0.89L10.13-0.89L10.13-0.89Q9.44-0.32 8.52 0.01L8.52 0.01L8.52 0.01Q7.59 0.33 6.53 0.33L6.53 0.33L6.53 0.33Q5.72 0.33 4.98 0.21L4.98 0.21L4.98 0.21Q4.23 0.09 3.58-0.12L3.58-0.12L3.58-0.12Q2.93-0.33 2.39-0.61L2.39-0.61L2.39-0.61Q1.85-0.88 1.45-1.19L1.45-1.19L2.11-3.56L2.11-3.56Q2.56-3.16 3.12-2.83L3.12-2.83L3.12-2.83Q3.68-2.50 4.27-2.27L4.27-2.27L4.27-2.27Q4.86-2.03 5.46-1.91L5.46-1.91L5.46-1.91Q6.06-1.78 6.59-1.78L6.59-1.78L6.59-1.78Q7.17-1.78 7.65-1.93L7.65-1.93L7.65-1.93Q8.13-2.08 8.48-2.33L8.48-2.33L8.48-2.33Q8.83-2.57 9.03-2.89L9.03-2.89L9.03-2.89Q9.23-3.22 9.23-3.56L9.23-3.56L9.23-3.56Q9.23-3.93 9.08-4.25L9.08-4.25L9.08-4.25Q8.93-4.57 8.52-4.87L8.52-4.87L8.52-4.87Q8.12-5.17 7.42-5.44L7.42-5.44L7.42-5.44Q6.71-5.72 5.60-6.00L5.60-6.00L5.60-6.00Q4.40-6.29 3.65-6.68L3.65-6.68L3.65-6.68Q2.89-7.08 2.46-7.55L2.46-7.55L2.46-7.55Q2.03-8.03 1.87-8.58L1.87-8.58L1.87-8.58Q1.71-9.14 1.71-9.76L1.71-9.76L1.71-9.76Q1.71-10.06 1.81-10.47L1.81-10.47L1.81-10.47Q1.91-10.88 2.14-11.32L2.14-11.32L2.14-11.32Q2.37-11.76 2.75-12.19L2.75-12.19L2.75-12.19Q3.12-12.62 3.69-12.95L3.69-12.95L3.69-12.95Q4.26-13.29 5.02-13.50L5.02-13.50L5.02-13.50Q5.79-13.71 6.79-13.71L6.79-13.71L6.79-13.71Q7.50-13.71 8.13-13.62L8.13-13.62L8.13-13.62Q8.75-13.53 9.27-13.37L9.27-13.37L9.27-13.37Q9.80-13.22 10.23-13.03L10.23-13.03L10.23-13.03Q10.67-12.84 11.01-12.66L11.01-12.66ZM27.09 0L24.85 0L24.85 0Q24.76-0.22 24.65-0.53L24.65-0.53L24.65-0.53Q24.55-0.83 24.45-1.17L24.45-1.17L24.45-1.17Q24.35-1.52 24.26-1.89L24.26-1.89L24.26-1.89Q24.18-2.27 24.13-2.64L24.13-2.64L24.13-2.64Q22.93-1.17 21.65-0.42L21.65-0.42L21.65-0.42Q20.38 0.33 18.98 0.33L18.98 0.33L18.98 0.33Q14.77 0.33 14.77-5.34L14.77-5.34L14.77-9.23L14.77-9.23Q14.77-9.86 14.76-10.38L14.76-10.38L14.76-10.38Q14.75-10.89 14.73-11.37L14.73-11.37L14.73-11.37Q14.70-11.85 14.65-12.35L14.65-12.35L14.65-12.35Q14.59-12.85 14.50-13.45L14.50-13.45L17.20-13.45L17.20-6.13L17.20-6.13Q17.20-5.01 17.32-4.20L17.32-4.20L17.32-4.20Q17.43-3.39 17.69-2.87L17.69-2.87L17.69-2.87Q17.96-2.35 18.38-2.10L18.38-2.10L18.38-2.10Q18.81-1.85 19.45-1.85L19.45-1.85L19.45-1.85Q20.03-1.85 20.69-2.20L20.69-2.20L20.69-2.20Q21.34-2.54 21.94-3.08L21.94-3.08L21.94-3.08Q22.54-3.63 23.04-4.28L23.04-4.28L23.04-4.28Q23.53-4.93 23.80-5.54L23.80-5.54L23.80-9.23L23.80-9.23Q23.80-9.87 23.79-10.40L23.79-10.40L23.79-10.40Q23.78-10.92 23.76-11.39L23.76-11.39L23.76-11.39Q23.73-11.87 23.68-12.35L23.68-12.35L23.68-12.35Q23.63-12.84 23.53-13.45L23.53-13.45L26.24-13.45L26.24-5.93L26.24-5.93Q26.24-4.01 26.45-2.56L26.45-2.56L26.45-2.56Q26.67-1.12 27.09 0L27.09 0ZM40.80-8.70L40.80 0L38.36 0L38.36-7.51L38.36-7.51Q38.36-8.74 38.27-9.50L38.27-9.50L38.27-9.50Q38.18-10.26 37.96-10.69L37.96-10.69L37.96-10.69Q37.74-11.11 37.38-11.26L37.38-11.26L37.38-11.26Q37.01-11.40 36.45-11.40L36.45-11.40L36.45-11.40Q35.96-11.40 35.48-11.21L35.48-11.21L35.48-11.21Q34.99-11.01 34.55-10.65L34.55-10.65L34.55-10.65Q34.11-10.28 33.73-9.79L33.73-9.79L33.73-9.79Q33.35-9.29 33.09-8.70L33.09-8.70L33.09 0L30.65 0L30.65-8.11L30.65-8.11Q30.65-10.06 30.43-11.41L30.43-11.41L30.43-11.41Q30.20-12.76 29.99-13.45L29.99-13.45L32.37-13.45L32.37-13.45Q32.51-13.03 32.62-12.45L32.62-12.45L32.62-12.45Q32.72-11.88 32.79-11.40L32.79-11.40L32.79-11.40Q33.39-12.10 33.95-12.55L33.95-12.55L33.95-12.55Q34.50-13.00 35.05-13.26L35.05-13.26L35.05-13.26Q35.60-13.51 36.14-13.61L36.14-13.61L36.14-13.61Q36.68-13.71 37.24-13.71L37.24-13.71L37.24-13.71Q37.89-13.71 38.42-13.53L38.42-13.53L38.42-13.53Q38.94-13.34 39.35-13.04L39.35-13.04L39.35-13.04Q39.75-12.74 40.04-12.33L40.04-12.33L40.04-12.33Q40.33-11.93 40.49-11.50L40.49-11.50L40.49-11.50Q41.11-12.17 41.69-12.60L41.69-12.60L41.69-12.60Q42.27-13.03 42.82-13.27L42.82-13.27L42.82-13.27Q43.37-13.51 43.91-13.61L43.91-13.61L43.91-13.61Q44.44-13.71 44.96-13.71L44.96-13.71L44.96-13.71Q45.96-13.71 46.64-13.39L46.64-13.39L46.64-13.39Q47.33-13.06 47.74-12.43L47.74-12.43L47.74-12.43Q48.16-11.80 48.34-10.86L48.34-10.86L48.34-10.86Q48.52-9.93 48.52-8.70L48.52-8.70L48.52 0L46.08 0L46.08-7.25L46.08-7.25Q46.08-8.53 45.98-9.33L45.98-9.33L45.98-9.33Q45.89-10.14 45.67-10.60L45.67-10.60L45.67-10.60Q45.46-11.06 45.09-11.23L45.09-11.23L45.09-11.23Q44.72-11.40 44.17-11.40L44.17-11.40L44.17-11.40Q43.68-11.40 43.20-11.21L43.20-11.21L43.20-11.21Q42.73-11.02 42.29-10.67L42.29-10.67L42.29-10.67Q41.84-10.32 41.47-9.82L41.47-9.82L41.47-9.82Q41.09-9.32 40.80-8.70L40.80-8.70ZM63.02-8.70L63.02 0L60.58 0L60.58-7.51L60.58-7.51Q60.58-8.74 60.49-9.50L60.49-9.50L60.49-9.50Q60.39-10.26 60.18-10.69L60.18-10.69L60.18-10.69Q59.96-11.11 59.59-11.26L59.59-11.26L59.59-11.26Q59.22-11.40 58.67-11.40L58.67-11.40L58.67-11.40Q58.18-11.40 57.69-11.21L57.69-11.21L57.69-11.21Q57.20-11.01 56.76-10.65L56.76-10.65L56.76-10.65Q56.32-10.28 55.94-9.79L55.94-9.79L55.94-9.79Q55.57-9.29 55.31-8.70L55.31-8.70L55.31 0L52.87 0L52.87-8.11L52.87-8.11Q52.87-10.06 52.64-11.41L52.64-11.41L52.64-11.41Q52.42-12.76 52.21-13.45L52.21-13.45L54.58-13.45L54.58-13.45Q54.73-13.03 54.83-12.45L54.83-12.45L54.83-12.45Q54.94-11.88 55.00-11.40L55.00-11.40L55.00-11.40Q55.61-12.10 56.16-12.55L56.16-12.55L56.16-12.55Q56.72-13.00 57.26-13.26L57.26-13.26L57.26-13.26Q57.81-13.51 58.35-13.61L58.35-13.61L58.35-13.61Q58.89-13.71 59.46-13.71L59.46-13.71L59.46-13.71Q60.10-13.71 60.63-13.53L60.63-13.53L60.63-13.53Q61.16-13.34 61.56-13.04L61.56-13.04L61.56-13.04Q61.96-12.74 62.25-12.33L62.25-12.33L62.25-12.33Q62.54-11.93 62.70-11.50L62.70-11.50L62.70-11.50Q63.32-12.17 63.90-12.60L63.90-12.60L63.90-12.60Q64.48-13.03 65.03-13.27L65.03-13.27L65.03-13.27Q65.59-13.51 66.12-13.61L66.12-13.61L66.12-13.61Q66.66-13.71 67.17-13.71L67.17-13.71L67.17-13.71Q68.17-13.71 68.86-13.39L68.86-13.39L68.86-13.39Q69.54-13.06 69.96-12.43L69.96-12.43L69.96-12.43Q70.37-11.80 70.55-10.86L70.55-10.86L70.55-10.86Q70.73-9.93 70.73-8.70L70.73-8.70L70.73 0L68.29 0L68.29-7.25L68.29-7.25Q68.29-8.53 68.20-9.33L68.20-9.33L68.20-9.33Q68.11-10.14 67.89-10.60L67.89-10.60L67.89-10.60Q67.67-11.06 67.30-11.23L67.30-11.23L67.30-11.23Q66.93-11.40 66.38-11.40L66.38-11.40L66.38-11.40Q65.89-11.40 65.42-11.21L65.42-11.21L65.42-11.21Q64.94-11.02 64.50-10.67L64.50-10.67L64.50-10.67Q64.06-10.32 63.68-9.82L63.68-9.82L63.68-9.82Q63.31-9.32 63.02-8.70L63.02-8.70ZM83.65-10.48L83.65-11.34L83.65-11.34Q83.32-11.40 82.69-11.50L82.69-11.50L82.69-11.50Q82.07-11.60 81.08-11.60L81.08-11.60L81.08-11.60Q79.79-11.60 78.92-11.08L78.92-11.08L78.92-11.08Q78.06-10.56 77.55-9.70L77.55-9.70L77.55-9.70Q77.03-8.83 76.81-7.71L76.81-7.71L76.81-7.71Q76.60-6.59 76.60-5.41L76.60-5.41L76.60-5.41Q76.60-4.64 76.75-4.00L76.75-4.00L76.75-4.00Q76.90-3.36 77.16-2.89L77.16-2.89L77.16-2.89Q77.43-2.43 77.77-2.17L77.77-2.17L77.77-2.17Q78.11-1.91 78.51-1.91L78.51-1.91L78.51-1.91Q78.94-1.91 79.40-2.20L79.40-2.20L79.40-2.20Q79.85-2.49 80.29-2.99L80.29-2.99L80.29-2.99Q80.74-3.48 81.16-4.13L81.16-4.13L81.16-4.13Q81.58-4.77 81.95-5.49L81.95-5.49L81.95-5.49Q82.32-6.21 82.63-6.95L82.63-6.95L82.63-6.95Q82.95-7.69 83.18-8.35L83.18-8.35L83.18-8.35Q83.40-9.02 83.52-9.57L83.52-9.57L83.52-9.57Q83.65-10.13 83.65-10.48L83.65-10.48ZM86.95 0L84.64 0L84.64 0Q84.49-0.32 84.38-0.95L84.38-0.95L84.38-0.95Q84.27-1.58 84.20-2.31L84.20-2.31L84.20-2.31Q84.12-3.05 84.08-3.74L84.08-3.74L84.08-3.74Q84.05-4.44 84.05-4.88L84.05-4.88L84.05-6.20L84.05-6.20Q83.62-5.08 83.04-3.92L83.04-3.92L83.04-3.92Q82.45-2.76 81.70-1.81L81.70-1.81L81.70-1.81Q80.95-0.87 80.04-0.27L80.04-0.27L80.04-0.27Q79.14 0.33 78.11 0.33L78.11 0.33L78.11 0.33Q77.28 0.33 76.56-0.04L76.56-0.04L76.56-0.04Q75.83-0.41 75.30-1.13L75.30-1.13L75.30-1.13Q74.76-1.86 74.46-2.93L74.46-2.93L74.46-2.93Q74.16-4.01 74.16-5.41L74.16-5.41L74.16-5.41Q74.16-6.97 74.58-8.47L74.58-8.47L74.58-8.47Q75.00-9.97 75.87-11.13L75.87-11.13L75.87-11.13Q76.74-12.30 78.09-13.01L78.09-13.01L78.09-13.01Q79.43-13.71 81.28-13.71L81.28-13.71L81.28-13.71Q82.56-13.71 83.82-13.55L83.82-13.55L83.82-13.55Q85.09-13.38 86.09-13.12L86.09-13.12L86.09-6.99L86.09-6.99Q86.09-4.50 86.33-2.80L86.33-2.80L86.33-2.80Q86.56-1.11 86.95 0L86.95 0ZM92.42 0L89.98 0L89.98-8.11L89.98-8.11Q89.98-10.06 89.76-11.41L89.76-11.41L89.76-11.41Q89.54-12.76 89.32-13.45L89.32-13.45L91.69-13.45L91.69-13.45Q91.77-13.24 91.85-12.90L91.85-12.90L91.85-12.90Q91.93-12.56 92.00-12.19L92.00-12.19L92.00-12.19Q92.06-11.83 92.11-11.47L92.11-11.47L92.22-10.88L92.22-10.88Q92.69-11.56 93.25-12.09L93.25-12.09L93.25-12.09Q93.81-12.62 94.39-12.98L94.39-12.98L94.39-12.98Q94.96-13.34 95.51-13.53L95.51-13.53L95.51-13.53Q96.06-13.71 96.50-13.71L96.50-13.71L96.50-13.71Q97.33-13.71 97.91-13.35L97.91-13.35L97.91-13.35Q98.48-12.99 98.84-12.37L98.84-12.37L98.84-12.37Q99.21-11.76 99.37-10.96L99.37-10.96L99.37-10.96Q99.54-10.16 99.54-9.29L99.54-9.29L97.43-8.83L97.43-8.83Q97.40-9.36 97.30-9.81L97.30-9.81L97.30-9.81Q97.20-10.26 97.02-10.59L97.02-10.59L97.02-10.59Q96.85-10.92 96.58-11.09L96.58-11.09L96.58-11.09Q96.31-11.27 95.91-11.27L95.91-11.27L95.91-11.27Q95.49-11.27 94.97-10.96L94.97-10.96L94.97-10.96Q94.46-10.64 93.97-10.13L93.97-10.13L93.97-10.13Q93.47-9.62 93.05-8.97L93.05-8.97L93.05-8.97Q92.63-8.32 92.42-7.65L92.42-7.65L92.42 0ZM111.47-8.77L108.30 0L108.30 0Q107.62 1.90 106.96 3.10L106.96 3.10L106.96 3.10Q106.30 4.30 105.62 4.99L105.62 4.99L105.62 4.99Q104.94 5.68 104.21 5.94L104.21 5.94L104.21 5.94Q103.48 6.20 102.63 6.20L102.63 6.20L102.63 6.20Q101.72 6.20 100.93 5.91L100.93 5.91L100.93 5.91Q100.13 5.62 99.40 5.08L99.40 5.08L100.20 2.97L100.20 2.97Q100.41 3.14 100.69 3.32L100.69 3.32L100.69 3.32Q100.97 3.49 101.30 3.63L101.30 3.63L101.30 3.63Q101.62 3.77 101.96 3.86L101.96 3.86L101.96 3.86Q102.30 3.96 102.63 3.96L102.63 3.96L102.63 3.96Q103.03 3.96 103.41 3.82L103.41 3.82L103.41 3.82Q103.79 3.68 104.18 3.29L104.18 3.29L104.18 3.29Q104.57 2.90 104.98 2.20L104.98 2.20L104.98 2.20Q105.39 1.49 105.85 0.34L105.85 0.34L102.17-8.77L102.17-8.77Q101.80-9.66 101.32-10.78L101.32-10.78L101.32-10.78Q100.83-11.90 100.06-13.45L100.06-13.45L102.70-13.45L106.96-2.68L106.96-2.68Q107.21-3.39 107.51-4.23L107.51-4.23L107.51-4.23Q107.80-5.06 108.12-5.95L108.12-5.95L108.12-5.95Q108.44-6.84 108.75-7.75L108.75-7.75L108.75-7.75Q109.07-8.65 109.36-9.48L109.36-9.48L109.36-9.48Q110.04-11.43 110.74-13.45L110.74-13.45L113.38-13.45L113.38-13.45Q113.04-12.68 112.76-12.03L112.76-12.03L112.76-12.03Q112.48-11.38 112.25-10.80L112.25-10.80L112.25-10.80Q112.01-10.23 111.82-9.73L111.82-9.73L111.82-9.73Q111.63-9.23 111.47-8.77L111.47-8.77Z" fill="url(#editing-outline-gradient)"></path></g></g><style>text {
  font-size: 64px;
  font-family: Arial Black;
  dominant-baseline: central;
  text-anchor: middle;
}</style></svg>